<?xml version="1.0" encoding="iso-8859-1"?>
<!-- Generator: Adobe Illustrator 19.0.0, SVG Export Plug-In . SVG Version: 6.00 Build 0)  -->
<svg version="1.1" id="Layer_1" xmlns="http://www.w3.org/2000/svg" xmlns:xlink="http://www.w3.org/1999/xlink" x="0px" y="0px"
	 viewBox="0 0 512 512" style="enable-background:new 0 0 512 512;" xml:space="preserve">
<circle style="fill:#FF5419;" cx="256" cy="256" r="256"/>
<path style="fill:#B54324;" d="M328.378,501.605c100.502-29.572,175.302-119.134,182.96-227.261L335.736,98.74l-103.1,101.716
	l42.901,42.901l-139.979,7.727l52.562,51.929l-20.694,6.589l49.688,49.288l-18.004,13.448L328.378,501.605z"/>
<ellipse style="fill:#FEE187;" cx="183.613" cy="288.823" rx="24.376" ry="27.789"/>
<ellipse style="fill:#FFC61B;" cx="328.387" cy="288.823" rx="24.376" ry="27.789"/>
<path style="fill:#FFEDB5;" d="M259.079,394.407h-6.156c-42.337,0-76.657-34.321-76.657-76.657v-67.077
	c0-42.337,34.321-76.657,76.657-76.657h6.156c42.337,0,76.657,34.321,76.657,76.657v67.077
	C335.736,360.086,301.415,394.407,259.079,394.407z"/>
<path style="fill:#FEE187;" d="M259.079,174.013H256v220.393h3.077c42.337,0,76.657-34.321,76.657-76.657V250.67
	C335.736,208.334,301.415,174.013,259.079,174.013z"/>
<circle style="fill:#59595B;" cx="223.073" cy="280.273" r="8.561"/>
<circle style="fill:#272525;" cx="288.927" cy="280.273" r="8.561"/>
<path style="fill:#59595B;" d="M287.634,310.315c-21.418-17.47-30.992,0-30.992,0s-0.274,0.334-0.641,0.919
	c-0.367-0.584-0.641-0.919-0.641-0.919s-9.573-17.47-30.992,0c-21.418,17.47-32.618,3.136-32.618,3.136s12.991,29.565,44.796,21.054
	c11.216-3.001,16.846-6.894,19.454-10.676c2.608,3.782,8.239,7.675,19.456,10.676c31.804,8.511,44.796-21.054,44.796-21.054
	S309.051,327.785,287.634,310.315z"/>
<path style="fill:#272525;" d="M287.634,310.315c-21.418-17.47-30.992,0-30.992,0s-0.274,0.334-0.641,0.919v12.597
	c2.608,3.782,8.239,7.673,19.454,10.674c31.804,8.511,44.796-21.054,44.796-21.054S309.051,327.785,287.634,310.315z"/>
<path style="fill:#3A3737;" d="M187.114,91.986h137.769c7.421,0,12.759,5.465,10.599,10.886
	c-18.663,46.851-17.086,97.163,4.732,143.427H171.784c21.816-46.266,23.393-96.577,4.732-143.427
	C174.358,97.451,179.695,91.986,187.114,91.986z"/>
<path style="fill:#272525;" d="M335.484,102.871c2.16-5.422-3.179-10.886-10.599-10.886H256v154.314h84.215
	C318.398,200.033,316.821,149.723,335.484,102.871z"/>
<path style="fill:#808183;" d="M181.698,220.581c-2.634,8.676-5.929,17.267-9.914,25.719c56.144,0,112.287,0,168.431,0
	c-3.986-8.452-7.278-17.043-9.914-25.719C280.767,220.581,231.233,220.581,181.698,220.581z"/>
<path style="fill:#59595B;" d="M330.302,220.581c-24.767,0-49.535,0-74.3,0V246.3c28.072,0,56.142,0,84.215,0
	C336.229,237.847,332.936,229.257,330.302,220.581z"/>
<path style="fill:#3A3737;" d="M140.024,242.223h231.95c3.07,0,5.56,2.489,5.56,5.56l0,0c0,3.07-2.489,5.56-5.56,5.56h-231.95
	c-3.07,0-5.56-2.489-5.56-5.56l0,0C134.465,244.712,136.954,242.223,140.024,242.223z"/>
<path style="fill:#272525;" d="M371.976,242.223H256v11.121h115.974c3.07,0,5.56-2.489,5.56-5.56
	C377.535,244.712,375.046,242.223,371.976,242.223z"/>
<path style="fill:#59595B;" d="M232.707,367.604c0-12.866,10.43-23.293,23.293-23.293s23.293,10.43,23.293,23.293
	c0,12.866-23.293,52.41-23.293,52.41S232.707,380.469,232.707,367.604z"/>
<path style="fill:#272525;" d="M256,344.311v75.704c0.012-0.019,23.293-39.548,23.293-52.41
	C279.293,354.74,268.866,344.311,256,344.311z"/>
<g>
</g>
<g>
</g>
<g>
</g>
<g>
</g>
<g>
</g>
<g>
</g>
<g>
</g>
<g>
</g>
<g>
</g>
<g>
</g>
<g>
</g>
<g>
</g>
<g>
</g>
<g>
</g>
<g>
</g>
</svg>
